HIERARCHY
ROOT joint_0
{
	OFFSET 0.000000 0.000000 0.000000
	CHANNELS 6 Xposition Yposition Zposition Zrotation Yrotation Xrotation 
	JOINT joint_1
	{
		OFFSET 7.683380 1.521202 101.454956
		CHANNELS 3 Zrotation Yrotation Xrotation
		JOINT joint_2
		{
			OFFSET -4.816528 0.859650 92.807007
			CHANNELS 3 Zrotation Yrotation Xrotation
			JOINT joint_3
			{
				OFFSET -7.237778 1.114670 92.543091
				CHANNELS 3 Zrotation Yrotation Xrotation
				JOINT joint_4
				{
					OFFSET 0.479660 2.971886 127.844971
					CHANNELS 3 Zrotation Yrotation Xrotation
					JOINT joint_5
					{
						OFFSET 15.211349 9.937172 76.390015
						CHANNELS 3 Zrotation Yrotation Xrotation
						End Site
						{
							OFFSET 0.000000 0.000000 0.000000
						}
					}
				}
				JOINT joint_6
				{
					OFFSET 2.887054 -26.053230 72.331909
					CHANNELS 3 Zrotation Yrotation Xrotation
					JOINT joint_7
					{
						OFFSET 10.229767 -132.540291 -13.979004
						CHANNELS 3 Zrotation Yrotation Xrotation
						JOINT joint_8
						{
							OFFSET 17.695633 -10.988861 -262.204956
							CHANNELS 3 Zrotation Yrotation Xrotation
							JOINT joint_9
							{
								OFFSET 11.003433 -0.031860 -255.909973
								CHANNELS 3 Zrotation Yrotation Xrotation
								End Site
								{
									OFFSET 0.000000 0.000000 0.000000
								}
							}
						}
					}
				}
				JOINT joint_10
				{
					OFFSET -2.092239 29.348854 71.062988
					CHANNELS 3 Zrotation Yrotation Xrotation
					JOINT joint_11
					{
						OFFSET -11.853149 131.935837 -17.877075
						CHANNELS 3 Zrotation Yrotation Xrotation
						JOINT joint_12
						{
							OFFSET 14.084503 10.700203 -262.437012
							CHANNELS 3 Zrotation Yrotation Xrotation
							JOINT joint_13
							{
								OFFSET 48.202347 13.087273 -251.229919
								CHANNELS 3 Zrotation Yrotation Xrotation
								End Site
								{
									OFFSET 0.000000 0.000000 0.000000
								}
							}
						}
					}
				}
			}
		}
	}
	JOINT joint_14
	{
		OFFSET 4.150818 -83.296913 -102.580017
		CHANNELS 3 Zrotation Yrotation Xrotation
		JOINT joint_15
		{
			OFFSET -36.423187 -7.342392 -449.858948
			CHANNELS 3 Zrotation Yrotation Xrotation
			JOINT joint_16
			{
				OFFSET -41.100235 -7.280350 -426.202026
				CHANNELS 3 Zrotation Yrotation Xrotation
				JOINT joint_17
				{
					OFFSET 175.972961 13.159744 -75.358000
					CHANNELS 3 Zrotation Yrotation Xrotation
					End Site
					{
						OFFSET 0.000000 0.000000 0.000000
					}
				}
			}
		}
	}
	JOINT joint_18
	{
		OFFSET -9.062592 83.477568 -102.093018
		CHANNELS 3 Zrotation Yrotation Xrotation
		JOINT joint_19
		{
			OFFSET -39.145699 -6.092751 -449.645996
			CHANNELS 3 Zrotation Yrotation Xrotation
			JOINT joint_20
			{
				OFFSET -32.926178 -7.016375 -426.911980
				CHANNELS 3 Zrotation Yrotation Xrotation
				JOINT joint_21
				{
					OFFSET 176.289299 16.780729 -73.883997
					CHANNELS 3 Zrotation Yrotation Xrotation
					End Site
					{
						OFFSET 0.000000 0.000000 0.000000
					}
				}
			}
		}
	}
}
MOTION
Frames: 7
Frame Time: 0.016667
-849.205505 -141.019104 1076.155029 -3.641744 -1.225543 -0.094796 -0.336821 2.930875 2.779339 -0.507255 -0.645754 -0.717319 -0.431201 0.714947 0.478130 -0.447099 -0.468762 2.568151 0.000000 0.000000 0.000000 -0.249681 -0.500701 2.907033 -0.213699 -1.036141 -3.970252 -0.014845 -0.015505 -0.348181 0.000000 0.000000 0.000000 0.711779 -1.037662 -4.201839 -0.172382 -0.549400 2.510337 -0.181870 7.062120 -3.426285 0.000000 0.000000 0.000000 0.613733 -2.530275 1.761450 0.671187 1.558335 0.176544 0.670124 1.732016 0.156217 0.000000 0.000000 0.000000 2.314243 -1.719247 0.368732 2.273436 1.997061 0.257540 2.239225 1.844255 0.760940 0.000000 0.000000 0.000000 
-846.774292 -140.845413 1076.307983 -3.576996 -0.459378 -0.160866 -0.371855 3.165359 2.890971 -0.554924 -0.673300 -0.758349 -0.473731 0.731891 0.511109 -0.322282 -1.426539 2.567065 0.000000 0.000000 0.000000 -0.222036 -0.331020 2.513606 -0.260197 -0.814147 -3.796355 0.023987 -0.842271 0.427073 0.000000 0.000000 0.000000 1.053344 -0.798236 -3.839123 -0.274775 -0.444389 2.005015 -0.311860 6.295574 -3.801443 0.000000 0.000000 0.000000 0.601090 -3.073510 1.767576 0.648994 1.254738 0.240873 0.649799 1.780807 0.143964 0.000000 0.000000 0.000000 2.301940 -2.295707 0.406834 2.262710 1.731313 0.236575 2.221942 1.948528 0.744068 0.000000 0.000000 0.000000 
-843.660156 -141.073608 1076.248047 -3.596813 0.552090 -0.208531 -0.466753 3.237591 2.815058 -0.649563 -0.703177 -0.708136 -0.575667 0.762692 0.476356 -0.115123 -2.765617 2.436327 0.000000 0.000000 0.000000 0.647399 -0.156777 2.214476 -0.254525 -0.485975 -3.290948 0.031748 -1.106421 0.569556 0.000000 0.000000 0.000000 0.831965 -0.466461 -3.278333 -0.300386 -0.200345 1.275926 -0.323138 5.769389 -3.694725 0.000000 0.000000 0.000000 0.638015 -3.830466 1.744155 0.667090 0.902621 0.347208 0.670661 1.888749 0.144829 0.000000 0.000000 0.000000 2.309241 -3.143051 0.481496 2.276052 1.564498 0.146685 2.224640 2.027954 0.737878 0.000000 0.000000 0.000000 
-839.915405 -141.582901 1076.019043 -3.672441 1.791637 -0.242699 -0.611380 3.227484 2.582309 -0.783407 -0.714004 -0.574384 -0.726706 0.769499 0.390287 0.176016 -4.492342 2.221539 0.000000 0.000000 0.000000 2.176197 0.025091 1.956443 -0.206965 -0.066565 -2.504367 0.016517 -0.932767 0.276105 0.000000 0.000000 0.000000 0.219795 -0.042767 -2.544491 -0.277612 0.157172 0.330931 -0.255457 5.412361 -3.258129 0.000000 0.000000 0.000000 0.715602 -4.757856 1.687245 0.718339 0.453729 0.493381 0.724697 2.063845 0.154778 0.000000 0.000000 0.000000 2.327918 -4.218902 0.576881 2.303550 1.438692 0.010906 2.238326 2.105149 0.736415 0.000000 0.000000 0.000000 
-835.008179 -142.271271 1076.152954 -3.768049 3.094888 -0.305684 -0.764179 3.015684 2.399835 -0.930235 -0.662408 -0.471970 -0.884504 0.700507 0.330022 0.428158 -5.942758 2.096047 0.000000 0.000000 0.000000 3.726123 0.330880 1.554242 -0.185983 0.501388 -1.588268 0.013420 -1.650843 0.130554 0.000000 0.000000 0.000000 -0.399867 0.494273 -1.630030 -0.250516 0.580151 -0.945433 -0.175218 4.628921 -2.569139 0.000000 0.000000 0.000000 0.747026 -5.910926 1.696422 0.719157 0.418852 0.617633 0.735685 2.169806 0.151465 0.000000 0.000000 0.000000 2.360235 -5.381747 0.752646 2.357825 1.474452 -0.220937 2.273454 2.186304 0.743428 0.000000 0.000000 0.000000 
-827.935303 -143.091629 1076.958008 -3.844598 4.421060 -0.409257 -0.923972 2.376444 2.397501 -1.097609 -0.546016 -0.477467 -1.044592 0.550494 0.370341 0.529485 -6.553904 2.147234 0.000000 0.000000 0.000000 4.990349 0.960456 0.902295 -0.241922 1.390704 -0.640775 0.041733 -4.313121 0.390158 0.000000 0.000000 0.000000 -0.745322 1.280631 -0.495735 -0.217705 1.146497 -2.778818 -0.091008 2.786353 -1.424604 0.000000 0.000000 0.000000 0.637263 -7.241095 1.851310 0.582721 0.890524 0.658462 0.615926 2.234814 0.095366 0.000000 0.000000 0.000000 2.418049 -6.501614 1.047694 2.465651 1.609268 -0.643174 2.347346 2.323748 0.761207 0.000000 0.000000 0.000000 
-818.885925 -144.079041 1078.232056 -3.911316 5.827198 -0.536568 -1.110069 1.373872 2.502436 -1.299260 -0.400394 -0.553203 -1.226343 0.352812 0.487511 0.523250 -6.586626 2.307804 0.000000 0.000000 0.000000 6.207125 1.874466 0.163913 -0.337161 2.569552 0.310996 0.093108 -8.405131 0.813756 0.000000 0.000000 0.000000 -0.936337 2.298243 0.798297 -0.133495 1.882814 -5.079629 0.044197 0.113739 0.190727 0.000000 0.000000 0.000000 0.417348 -8.710598 2.121248 0.337588 1.653776 0.629300 0.389095 2.336001 -0.009222 0.000000 0.000000 0.000000 2.499030 -7.623025 1.436158 2.621301 1.790817 -1.235706 2.455064 2.536577 0.785714 0.000000 0.000000 0.000000 
